<svg xmlns="http://www.w3.org/2000/svg" viewBox="0 0 628.94 249.81"><defs><style>.cls-1{fill:#fff;}</style></defs><title>marca-principal</title><g id="Capa_2" data-name="Capa 2"><g id="Capa_1-2" data-name="Capa 1"><polygon class="cls-1" points="224.86 190.21 224.87 120.44 211.53 120.44 211.53 190.21 224.86 190.21"/><path class="cls-1" d="M270.2,165.58c0,8.8-5.29,16-11.63,16s-11.61-7.16-11.61-16c0-8.64,5.25-15.84,11.61-15.84s11.63,7.19,11.63,15.84m13.11,0c0-14.68-10.67-25.9-24.74-25.9s-24.74,11.21-24.74,25.9,10.67,26,24.74,26,24.74-11.22,24.74-26"/><path class="cls-1" d="M329.25,144.44a29,29,0,0,0-10.77-4.11,40.41,40.41,0,0,0-8.16-1c-11.94,0-20,6.25-20,15.45,0,6.55,4,11.2,12.72,14.48l8.45,3.26c3.37,1.28,5,3,5,5.17,0,2.66-2.83,4.26-7.72,4.26a17.77,17.77,0,0,1-5.49-.95c-3.61-1.18-5.6-2.12-10.56-5.18l-4,10.24c5.42,2.75,7.63,3.6,12.16,4.56a40,40,0,0,0,8,.94c11.85,0,19.67-5.92,19.67-14.92,0-4.32-2-8.77-5.08-10.88-2.22-1.69-9.31-4.85-14.81-6.78-4.43-1.56-6.13-2.94-6.13-5.17,0-2.76,3.16-4.67,8-4.67a23,23,0,0,1,11.31,3.41c1,.53,2.08,1.26,3.36,2.12Z"/><path class="cls-1" d="M399.09,161.67H382.92l8-25.24Zm23,28.54-25.25-69.77H384.94l-25.26,69.77h14L379.32,173H402.7l5.51,17.24Z"/><path class="cls-1" d="M472.85,190.21V154.06c0-9.29-4.42-14-13.29-14-6.28,0-11.14,2.64-17.06,9.08v-8.13H429.84v49.16h12.67V160.64l1.7-1.82c5.48-5.91,8.77-6.15,11.42-6s4.54-.3,4.54,5.82v31.6Z"/><path class="cls-1" d="M516.81,173.83c-3.05,4.76-7,7.41-10.87,7.41-6,0-10.15-6.22-10.15-15.12,0-9.3,5.17-16.17,12.15-16.17,3.91,0,7.4,1.9,8.25,4.55a26.84,26.84,0,0,1,.61,6.32Zm12.62,16.38V116.77l-12.62,3.63v22.66a14.25,14.25,0,0,0-6.55-3,15.74,15.74,0,0,0-4.32-.52c-13,0-23.46,12.25-23.46,27.49,0,14.16,8.54,24.52,20.18,24.52a16.88,16.88,0,0,0,9.21-2.76c2.32-1.47,3.15-2.43,5-5.28v6.65Z"/><path class="cls-1" d="M571,159.67H551.79c1-6.65,4.83-10.49,10.48-10.49,5.89,0,8.43,3,8.76,10.49m12.68,25.79-4.66-9.6c-4.52,2.86-6.45,3.79-9.41,4.65a19.4,19.4,0,0,1-5.81.86,12.76,12.76,0,0,1-11-5.93c-1.17-2-1.49-3.7-1.69-7.83h32.56v-5.39c0-13.3-8.45-22.52-20.6-22.52-14.09,0-24.64,11.73-24.64,27.28,0,15,9.2,24.63,23.8,24.63a38.49,38.49,0,0,0,16.16-3.51c1.17-.52,3-1.35,5.28-2.63"/><path class="cls-1" d="M628.94,144.44a29.11,29.11,0,0,0-10.78-4.11,40.52,40.52,0,0,0-8.16-1c-12,0-20,6.25-20,15.45,0,6.55,4,11.2,12.71,14.48l8.44,3.26c3.4,1.28,5,3,5,5.17,0,2.66-2.87,4.26-7.71,4.26a17.78,17.78,0,0,1-5.5-.95c-3.59-1.18-5.61-2.12-10.57-5.18l-4,10.24c5.4,2.75,7.62,3.6,12.16,4.56a40.07,40.07,0,0,0,8.05.94c11.84,0,19.63-5.92,19.63-14.92,0-4.32-2-8.77-5.05-10.88-2.23-1.69-9.3-4.85-14.81-6.78-4.43-1.56-6.14-2.94-6.14-5.17,0-2.76,3.17-4.67,8-4.67a22.88,22.88,0,0,1,11.32,3.41c.95.53,2.12,1.26,3.37,2.12Z"/><path class="cls-1" d="M238,83.19v-23h-4.25V81.87c0,4.27-.3,5.46-2,7.29a9.38,9.38,0,0,1-7.21,3,9.27,9.27,0,0,1-7.13-3c-1.68-1.83-2-3-2-7.29V60.24h-4.25v23c0,4.46,1.13,7.21,4,9.56a14.62,14.62,0,0,0,9.46,3.17,14.46,14.46,0,0,0,9.42-3.17c2.86-2.35,3.94-5,3.94-9.56"/><path class="cls-1" d="M266.88,94.93V77.3c0-4.4-2-6.56-6.18-6.56a9.86,9.86,0,0,0-6.29,2.35,20.37,20.37,0,0,0-3.22,3.23v-5h-3.92V94.93h3.92V80.53c4.1-4.54,6.65-6.3,9-6.3a2.53,2.53,0,0,1,2.4,1.24,6.67,6.67,0,0,1,.37,2.77V94.93Z"/><path class="cls-1" d="M279.51,71.36h-3.9V94.93h3.9Zm.64-8.22a2.55,2.55,0,1,0-2.55,2.56,2.55,2.55,0,0,0,2.55-2.56"/><polygon class="cls-1" points="306.46 71.36 302.21 71.36 295.8 90.51 295.72 91.42 295.64 90.46 289.14 71.36 284.86 71.36 293.7 95.62 297.31 95.62 306.46 71.36"/><path class="cls-1" d="M325.42,79.89H313.88c.88-3.66,3.18-5.61,6.46-5.61s5,1.95,5.09,5.61m4.28,2.94v-2.3c0-5.88-3.59-9.8-9.12-9.8-6.71,0-11.14,4.94-11.14,12.45s4.43,12.43,11,12.43c3,0,5-.69,8.52-2.87l-1.57-3.07c-2.57,1.77-4,2.33-6.13,2.33-4.79,0-7.71-3.48-7.71-9.18Z"/><path class="cls-1" d="M349.13,72.36a4.62,4.62,0,0,0-3-1.62c-1.77,0-3.23,1.14-6.12,4.9V71.35h-3.92V94.93H340v-14c2.22-4.08,4.09-6.2,5.57-6.2.47,0,.87.25,1.67.94Z"/><path class="cls-1" d="M369.25,88.83c0-3.68-1.39-5.3-6.4-7.39-4.26-1.76-4.89-2.11-5.83-3.05a2.09,2.09,0,0,1-.57-1.46c0-1.76,1.73-3,4.39-3a11.72,11.72,0,0,1,6.08,2l1.94-3.18A13.53,13.53,0,0,0,364.27,71a21.15,21.15,0,0,0-3-.26c-5.5,0-9,2.55-9,6.67,0,2.85,1.57,4.47,6.16,6.39,4.21,1.74,5.3,2.39,6.25,3.74a3.21,3.21,0,0,1,.48,1.62c0,1.83-1.77,3.12-4.15,3.12A14,14,0,0,1,355.58,91c-.43-.2-1-.53-1.78-.95l-1.61,3.3a16.81,16.81,0,0,0,5.57,2,19.17,19.17,0,0,0,3.27.32c5.13,0,8.21-2.56,8.21-6.78"/><path class="cls-1" d="M380.74,71.36h-3.92V94.93h3.92Zm.62-8.22a2.56,2.56,0,1,0-2.56,2.56,2.55,2.55,0,0,0,2.56-2.56"/><path class="cls-1" d="M405.07,87.75a12.76,12.76,0,0,1-2.55,2.55,8.69,8.69,0,0,1-4.59,1.6c-3.64,0-6.3-3.43-6.3-8.16,0-5.68,3.24-9.26,8.22-9.26,2.39,0,4,.69,4.72,2a5.76,5.76,0,0,1,.49,3.11Zm4,7.18V60.24h-4V72.36a8.48,8.48,0,0,0-5.61-1.62c-7,0-12,5.45-12,13.05,0,7,4.06,11.83,9.84,11.83a10.37,10.37,0,0,0,7.8-3.67v3Z"/><path class="cls-1" d="M429.45,89c-3.39,2.47-4.59,3-6.32,3A3,3,0,0,1,419.91,89a4.74,4.74,0,0,1,.67-2.55l8.86-2.3Zm5.89,3.29c-1.19-.23-1.85-.64-2-1.26V76.62c0-3.64-3-5.89-7.67-5.89-5,0-8.51,2.16-8.51,5.25a2.28,2.28,0,0,0,.46,1.47l3.95-.84a2.6,2.6,0,0,1-.23-.88c0-1.36,1.17-2,3.6-2,3,0,4.47,1,4.47,2.91V80.9l-8.16,1.94A6.23,6.23,0,0,0,416,89.37a5.89,5.89,0,0,0,6.28,6.21,10.52,10.52,0,0,0,5-1.36,13.09,13.09,0,0,0,2.51-1.87c.21,2.22,1.33,3.06,4.58,3.28Z"/><path class="cls-1" d="M457.82,87.75a13.09,13.09,0,0,1-2.52,2.55,8.86,8.86,0,0,1-4.6,1.6c-3.63,0-6.27-3.43-6.27-8.16,0-5.68,3.22-9.26,8.2-9.26,2.4,0,4,.69,4.71,2a6,6,0,0,1,.48,3.11Zm4,7.18V60.24h-4V72.36a8.44,8.44,0,0,0-5.61-1.62c-7,0-12,5.45-12,13.05,0,7,4.06,11.83,9.83,11.83a10.27,10.27,0,0,0,7.8-3.67v3Z"/><path class="cls-1" d="M498.84,87.75a11.76,11.76,0,0,1-2.54,2.55,8.76,8.76,0,0,1-4.58,1.6c-3.62,0-6.29-3.43-6.29-8.16,0-5.68,3.22-9.26,8.21-9.26,2.39,0,4,.69,4.75,2a6.32,6.32,0,0,1,.45,3.11Zm4,7.18V60.24h-4V72.36a8.41,8.41,0,0,0-5.59-1.62c-7,0-12,5.45-12,13.05,0,7,4.06,11.83,9.84,11.83A10.29,10.29,0,0,0,498.84,92v3Z"/><path class="cls-1" d="M525.22,79.89H513.67c.88-3.66,3.14-5.61,6.45-5.61s5,1.95,5.09,5.61m4.25,2.94v-2.3c0-5.88-3.59-9.8-9.08-9.8-6.73,0-11.17,4.94-11.17,12.45s4.45,12.43,11,12.43c3.08,0,5.05-.69,8.51-2.87l-1.55-3.07c-2.52,1.77-4,2.33-6.12,2.33-4.82,0-7.71-3.48-7.71-9.18Z"/><path class="cls-1" d="M0,124.42A160.83,160.83,0,0,1,7.22,76.33C21.17,31.48,53.89,0,92,0s70.72,31.36,84.74,76.07A161.12,161.12,0,0,1,184,124.42v.49c0,69-41.2,124.9-92,124.9S0,193.89,0,124.91ZM10.12,77.24A157.88,157.88,0,0,0,3,124.42v.49c0,68.24,40.63,121.86,89,121.86s89-53.63,89-121.86v-.49A157.82,157.82,0,0,0,173.84,77C160.06,33,128.24,3,92,3S23.86,33.11,10.12,77.24"/><path class="cls-1" d="M80.24,24.74a12.16,12.16,0,0,1-2.86.45l-3-12.12c5.35-1.34,8.32.33,9.44,4.88.88,3.54-1,6.12-3.59,6.79m5.55-8.08c-1.14-4.54-4.56-6.46-9.65-5.19-4.08,1-5.23,1.61-5.59,2a.51.51,0,0,0,0,.7l1.88-.24,3,11.91-1.19.63c-.5.27-.65.66-.38,1.09.47-.14,2-.55,3.12-.83s2.7-.59,3.36-.74c4.88-1.23,6.56-5,5.49-9.34"/><path class="cls-1" d="M110.67,20.57c-1.27,3.9-3.76,5.24-6.46,4.35s-3.92-3.39-2.5-7.71c1.09-3.39,3.4-5.13,6.27-4.21,3.33,1.09,3.82,4.15,2.69,7.57m2.39-.26c1.4-4.3,0-7.24-3.89-8.48-4.48-1.46-8.32,1-9.89,5.79-1.29,4-.18,7.23,3.66,8.49,4.51,1.45,8.45-.65,10.12-5.8"/><path class="cls-1" d="M124.87,24.07a3.17,3.17,0,0,1-4.81,1.06c-.24-.15-.5-.34-.77-.54l3.57-5.73a10.23,10.23,0,0,1,.92.54,3.13,3.13,0,0,1,1.1,4.66m-1,12a6.71,6.71,0,0,1-1.12-3.39l-.6-5.77A4.68,4.68,0,0,0,127,24.8c1.31-2.07.5-4.44-2.22-6.12-3.32-2.09-4.75-2.75-5.14-2.12-.05.09-.08.18-.12.27L121,18l-6.54,10.44-1.37-.4a.7.7,0,0,0-1,.49c.85.48,1.43.84,2.23,1.32s1.54,1,2.35,1.53a1,1,0,0,0,1.29-.24l-1.82-1.54,2.6-4.14,1.37.86.39,6.06c.18,2.28.69,2.91,1.82,3.61a1.28,1.28,0,0,0,1.54.07"/><path class="cls-1" d="M46.75,43.39c-1.9-1.61-3.49-1.16-5.92.27-1.85,1.1-3.22,1.45-4.33.55a2.53,2.53,0,0,1,0-3.48,8.15,8.15,0,0,1,2-1.81l1.62,1.44a1.05,1.05,0,0,0,.12-1.72l-1.74-1.7a17.58,17.58,0,0,0-2.72,2.6c-1.67,2-2,5,.09,6.8,1.22,1,2.86,1,5-.22,2.94-1.67,4.13-1.53,5.14-.66a2.88,2.88,0,0,1,.07,3.8c-1.46,1.73-2.78,2-4.44.59a1.71,1.71,0,0,0,.06,2.45c1.48,1.25,3.36.34,5-1.6,1.94-2.29,2-5.65,0-7.31"/><path class="cls-1" d="M53.31,28.3l-3.17-2.79A42.7,42.7,0,0,1,46,29.84c-1.36,1.31-2.85,2.57-4.58,4.25l2.5,3.33c.62-.39.74-.74.15-2.11L43.46,34c.7-.73,1.62-1.58,2.44-2.37l8.55,8.86-.88,1.37A.69.69,0,0,0,53.82,43c.44-.52,1.33-1.38,2.2-2.2s1.46-1.39,1.91-1.8A.86.86,0,0,0,58,37.67L56,39l-8.53-8.83a25.43,25.43,0,0,0,2.48-2.49l1.74,1a1,1,0,0,0,1.63-.39"/><path class="cls-1" d="M65.57,15.3l-3.75,2.17c-.7.38-.76,1-.43,1.34l1.7-.63,2.52,11-8.69-7.46,1-.73a1.15,1.15,0,0,0,.41-1.57l-4.25,2.45c-.64.37-.91,1-.47,1.53L55,22.92,66.2,32.7a2.73,2.73,0,0,0,1-3l-2.6-12.21c1.32-.59,1.58-1.31,1-2.22"/><path class="cls-1" d="M95,23.32l-2.16-.43L93,10.45l1.11-.1c.73-.06,1-.27.92-1l-4.7-.1c-.86,0-1.31.32-1.18,1l1.77.19-.22,12.44-1.37.28c-.72.14-.87.53-.73,1,.66,0,1.74,0,2.76,0s1.9,0,2.53.08A.88.88,0,0,0,95,23.32"/><path class="cls-1" d="M142.87,33.69l-3.11-3c-.59-.55-1.15-.46-1.41,0l1.08,1.45-9.94,5.45,4.77-10.41,1,.79a1.17,1.17,0,0,0,1.65,0l-3.54-3.41c-.55-.51-1.27-.59-1.6,0l.88,1.15-6.3,13.51a2.7,2.7,0,0,0,3.09.14l11.06-5.84c.91,1.07,1.67,1.15,2.39.27"/><path class="cls-1" d="M143.26,58.5l-.62-1.67,9.47-7.91c1.18,1.31,1.73,1.48,2.23.93L152,46.4l-12.13,3,7.21-10.26-1.6-2.38c-.5-.77-1.14-.75-1.47-.31l.68,1.83L134,43.93,132.89,43a.68.68,0,0,0-1.05.08c.41.53.89,1.27,1.39,2s.92,1.39,1.25,1.92a.83.83,0,0,0,1.27.33l-.89-2,8.7-4.9-7,10.06a2.64,2.64,0,0,0,2.27.52l10.68-2.73-8,6.82-1.11-1a.72.72,0,0,0-1.06.06c.43.54.92,1.29,1.42,2s.9,1.38,1.24,1.91a.87.87,0,0,0,1.29.39"/><path class="cls-1" d="M22.89,189.66l2.24,3.71c.4.69,1,.75,1.33.39l-.65-1.7,11-2.69-7.33,8.82-.73-1a1.13,1.13,0,0,0-1.6-.38l2.55,4.2c.37.65,1.06.88,1.53.44l-.55-1.3,9.57-11.44a2.66,2.66,0,0,0-3-.93l-12.17,2.78c-.61-1.27-1.33-1.53-2.24-.88"/><path class="cls-1" d="M16.44,171.93l1.39,3.8c.29.8.85,1.1,1.46.72l-.45-1.78,9.72-3.54-7.92,12.29.73,2c.33.92,1,1,1.4.64l-.35-1.84,11.48-4.19.81,1.13a.66.66,0,0,0,1,.19,23.42,23.42,0,0,1-.86-2.21c-.34-.89-.6-1.7-.8-2.32a.86.86,0,0,0-1.14-.56l.39,2.21-9.11,3.32,6.93-10.62c.62-.95.71-1.44.52-1.9a2.57,2.57,0,0,0-.49-.91l-12.91,4.71-.43-.79c-.34-.62-.71-.74-1.39-.39"/><path class="cls-1" d="M26.68,159.28l.21,2.2-12,3.21-.39-1c-.26-.68-.56-.88-1.25-.61,1.12,4.24,1.21,4.55,1.21,4.55.22.85.64,1.18,1.27.87l-.32-1.77,12-3.21.62,1.26c.34.63.76.67,1.13.4-.21-.62-.48-1.64-.76-2.65s-.49-1.83-.61-2.43a.88.88,0,0,0-1.14-.78"/><path class="cls-1" d="M10.56,146.94l.76,4.28c.14.8.66,1,1.12.83v-1.79l11.25,1.42-10,5.61-.34-1.22a1.15,1.15,0,0,0-1.35-.92l.85,4.83c.14.73.69,1.22,1.29,1l0-1.43,13-7.24a2.69,2.69,0,0,0-2.42-1.94l-12.38-1.75c-.09-1.43-.67-1.92-1.76-1.65"/><path class="cls-1" d="M20.42,132.45c-.23.62,0,1.18.95,1.41l1.73.48.3,5.52-5.41.56-.42-4.08,1.5-.09A1,1,0,0,0,18,135c-1,.12-1.89.17-3.28.26a.92.92,0,0,0,.21,1c.34.29.61.29,1.35.19l.42,4.11-5.39.57-.35-5,2.13-.57c.1-.61-.23-1.17-.91-1l-2.78.44.83,7.83c.23,2.24.61,2.35,1.29,2.13l0-1.67,12.32-1.3.45,1.19a.72.72,0,0,0,1,.42l-1.12-10.64Z"/><path class="cls-1" d="M13.38,123.17a3.19,3.19,0,0,1,3.52,3.46c0,.29,0,.61,0,.95l-6.75.11c0-.36,0-.74,0-1a3.13,3.13,0,0,1,3.31-3.48M24,117.46a6.32,6.32,0,0,1-2.2,2.81l-4.52,3.64a4.65,4.65,0,0,0-4.4-2.87c-2.45,0-4,2-3.94,5.19.08,3.93.27,5.48,1,5.46a1.7,1.7,0,0,0,.27,0l.2-1.88,12.34-.22.41,1.39a.71.71,0,0,0,.92.54c-.06-1-.06-1.68-.09-2.61s0-1.83,0-2.78a1,1,0,0,0-.9-1l-.32,2.37-4.88.07,0-1.61,4.85-3.65c1.82-1.38,2.08-2.15,2.06-3.49a1.32,1.32,0,0,0-.8-1.34"/><path class="cls-1" d="M20.77,106.75c-2.49-.06-3.43,1.29-4.44,3.94-.74,2-1.57,3.17-3,3.13a2.5,2.5,0,0,1-2.15-2.69,8.67,8.67,0,0,1,.42-2.68l2.16.11a1.07,1.07,0,0,0-1-1.41l-2.41-.24a18.44,18.44,0,0,0-.47,3.73c0,2.61,1.57,5.18,4.31,5.24,1.63,0,2.88-1,3.81-3.35,1.21-3.15,2.23-3.76,3.57-3.76A2.87,2.87,0,0,1,24,111.71c0,2.27-.9,3.28-3.05,3.25a1.68,1.68,0,0,0,1.58,1.88c1.94,0,2.83-1.86,2.88-4.37,0-3-2-5.67-4.59-5.71"/><path class="cls-1" d="M25.59,99.67l-.74,2.07L12.57,99.57l.09-1.1c0-.71-.12-1-.88-1.07C11,101.69,11,102,11,102c-.16.85.09,1.34.78,1.33l.45-1.73,12.27,2.15,0,1.43c.06.71.41.93.86.86.08-.66.26-1.73.43-2.74s.33-1.87.46-2.47a.86.86,0,0,0-.68-1.19"/><path class="cls-1" d="M18.88,83.08l-4.16-.68a45.16,45.16,0,0,1-1.26,5.88c-.47,1.83-1.07,3.69-1.66,6l3.92,1.48c.33-.64.24-1-1-1.86l-1.14-.77c.2-1,.55-2.19.82-3.28l11.92,3,0,1.63a.7.7,0,0,0,.78.77c.12-.68.42-1.87.72-3s.52-2,.67-2.53a.86.86,0,0,0-.63-1.17l-1,2.26-11.92-3a25.52,25.52,0,0,0,.79-3.44l2-.08c.84,0,1.19-.32,1.19-1.2"/><path class="cls-1" d="M25.93,75.51l-1.51,3.91-5.1-4.18ZM33.85,72l-1,1.49L18,73.33c-.16.33-.28.54-.42.86a1.39,1.39,0,0,0,.51,1.72l10.36,8.92-.11,1.22a.68.68,0,0,0,.71.7,18.29,18.29,0,0,1,.75-2c.31-.84.66-1.69.92-2.29a.9.9,0,0,0-.39-1.21l-1.2,2-3.67-3,1.82-4.69,4.67.16-.24,1.76a.61.61,0,0,0,.64.72c.17-.59.52-1.52.88-2.44s.77-1.95,1-2.55A.87.87,0,0,0,33.85,72"/><path class="cls-1" d="M35.43,60.75c-2.19-1.15-3.64-.4-5.72,1.51-1.6,1.47-2.86,2.1-4.14,1.42a2.52,2.52,0,0,1-.7-3.4,8.72,8.72,0,0,1,1.57-2.2l1.87,1.08a1,1,0,0,0-.24-1.71l-2-1.31a18.19,18.19,0,0,0-2.14,3.1c-1.23,2.3-1,5.35,1.47,6.65,1.45.76,3,.39,4.92-1.26,2.52-2.25,3.69-2.37,4.88-1.72a2.8,2.8,0,0,1,.81,3.7c-1,2-2.27,2.5-4.17,1.5a1.69,1.69,0,0,0,.55,2.39c1.71.91,3.39-.36,4.55-2.57,1.42-2.66.78-6-1.49-7.19"/><path class="cls-1" d="M156.68,73,155,69.13l6.6-.54Zm-3.2,8-.36-1.78L163.9,69.05a3.5,3.5,0,0,0-.3-.92,1.37,1.37,0,0,0-1.54-.9l-13.67.8-.75-1a.69.69,0,0,0-1,0c.29.54.61,1.29.92,2s.68,1.68.9,2.28a.87.87,0,0,0,1.1.6l-.5-2.25,4.72-.4,1.94,4.62L152.25,77l-1.06-1.43a.64.64,0,0,0-1-.1c.3.59.68,1.47,1,2.39s.81,1.94,1.07,2.56a.89.89,0,0,0,1.14.62"/><path class="cls-1" d="M171.33,93.35l-1-3.91c-.24-.83-.75-1.17-1.37-.85l.28,1.81-10,2.67,9-11.55-.54-2.11c-.28-1-.93-1.05-1.34-.77l.17,1.89L154.67,83.7,154,82.49a.69.69,0,0,0-1-.27c.21.59.43,1.43.66,2.28s.45,1.75.6,2.4a.88.88,0,0,0,1.09.66l-.18-2.25,9.37-2.51-7.83,10c-.7.9-.81,1.37-.7,1.86a2.62,2.62,0,0,0,.43.92L169.63,92l.37.83c.3.65.64.8,1.34.51"/><path class="cls-1" d="M159.59,104.81a13.15,13.15,0,0,1-.17-2.91l12.38-1.73c.78,5.47-1.2,8.24-5.82,8.9-3.61.49-6-1.59-6.39-4.27m7.42,6.34c4.67-.68,6.94-3.87,6.19-9-.58-4.17-1-5.37-1.38-5.79a.47.47,0,0,0-.69-.06l0,1.88L159,99.86l-.51-1.25c-.2-.52-.58-.73-1-.49.1.46.35,2.06.5,3.17s.31,2.75.39,3.41c.69,5,4.28,7.07,8.68,6.45"/><path class="cls-1" d="M160.67,121.29l.28-2.18,12.41-.66.17,1.09c.1.73.36,1,1.1.86-.23-4.34-.26-4.71-.26-4.71-.07-.86-.4-1.28-1.07-1.1l0,1.79-12.45.63-.35-1.36c-.2-.67-.61-.81-1-.64.08.67.15,1.73.2,2.77s.09,1.89.08,2.51a.9.9,0,0,0,1,1"/><path class="cls-1" d="M174.08,140l.22-4c.05-.87-.33-1.34-1-1.24L173,136.5,162.62,136l12.11-8.24.12-2.16c0-1-.56-1.32-1-1.16l-.43,1.86-12.2-.65-.3-1.36a.66.66,0,0,0-.87-.57c0,.62,0,1.48-.08,2.38l-.17,2.43a.86.86,0,0,0,.83,1l.5-2.19,9.69.52-10.51,7.08c-.94.62-1.21,1-1.26,1.55a2.29,2.29,0,0,0,.13,1l13.71.72.1.89c.06.71.35.95,1.09.91"/><path class="cls-1" d="M160.72,152.41c.37-.56.3-1.14-.55-1.62l-1.54-.9,1.12-5.41,5.38.85-.63,4.07-1.52-.32a1,1,0,0,0,.78,1.45c1,.17,1.86.33,3.24.62a1,1,0,0,0,.05-1c-.27-.36-.53-.44-1.24-.56l.63-4.08,5.37.86-1,5h-2.21c-.24.56-.08,1.18.58,1.26l2.83.26,1.25-7.77c.34-2.22,0-2.41-.72-2.38l-.43,1.61-12.23-1.94-.11-1.26a.73.73,0,0,0-.88-.67L157.26,151Z"/><path class="cls-1" d="M167.37,172.67l1-3.89c.21-.85-.05-1.4-.78-1.43l-.64,1.71-10-2.69,13.54-5.51.58-2.08c.26-1-.27-1.41-.77-1.34l-.79,1.71L157.74,156v-1.39a.67.67,0,0,0-.76-.74c-.11.6-.32,1.45-.56,2.3s-.5,1.73-.68,2.38a.85.85,0,0,0,.61,1.09l1-2,9.37,2.49-11.76,4.74c-1.05.42-1.42.77-1.55,1.26a2.51,2.51,0,0,0-.08,1l13.27,3.56-.11.88c-.07.72.15,1,.92,1.12"/><path class="cls-1" d="M153.08,180.18c2.29.92,3.65,0,5.55-2.1,1.4-1.63,2.62-2.38,4-1.86a2.54,2.54,0,0,1,1,3.31,8.71,8.71,0,0,1-1.36,2.33l-2-.86a1,1,0,0,0,.41,1.66l2.18,1.1a17.51,17.51,0,0,0,1.79-3.31c1-2.41.38-5.41-2.17-6.46-1.51-.6-3-.07-4.71,1.77-2.28,2.5-3.46,2.72-4.71,2.21a2.85,2.85,0,0,1-1.2-3.59c.85-2.1,2-2.74,4-1.93a1.66,1.66,0,0,0-.8-2.3c-1.81-.73-3.29.7-4.25,3-1.14,2.8-.17,6,2.23,7"/><path class="cls-1" d="M146.87,185.37l1.33-1.74,11,5.87-.4,1c-.3.67-.22,1,.48,1.3,2.06-3.84,2.21-4.15,2.21-4.15.41-.78.34-1.31-.34-1.51l-1,1.5-11-5.85.37-1.35c.19-.69-.07-1-.52-1.06-.29.59-.78,1.54-1.26,2.44s-.89,1.68-1.21,2.21a.86.86,0,0,0,.31,1.34"/><path class="cls-1" d="M144.23,196.77c2.13,1.33,3.6.66,5.83-1.1,1.68-1.35,3-1.9,4.22-1.13a2.53,2.53,0,0,1,.46,3.44A9.32,9.32,0,0,1,153,200l-1.82-1.19a1,1,0,0,0,.14,1.71l1.94,1.45a18.76,18.76,0,0,0,2.34-2.95c1.37-2.2,1.31-5.25-1-6.72-1.37-.88-3-.61-5,.92-2.66,2.06-3.85,2.08-5,1.35a2.87,2.87,0,0,1-.58-3.74c1.22-1.92,2.46-2.33,4.29-1.2a1.68,1.68,0,0,0-.38-2.42c-1.64-1-3.37.11-4.72,2.25-1.6,2.56-1.19,5.89,1,7.26"/><path class="cls-1" d="M67.73,231.14a.93.93,0,0,0-1.48-.08L65,232.26a7.83,7.83,0,0,1-3-1c-2.63-1.41-3.72-4.2-1.39-8.6,1.8-3.41,4.74-4,7.68-2.42a8.32,8.32,0,0,1,2.15,1.57l-1.17,1.86c.48.52,1.06.51,1.68-.27l1.41-1.87a10.53,10.53,0,0,0-3-2.35c-4.26-2.25-8.76-1.1-11.1,3.3s-1.23,7.76,2.51,9.73a11.19,11.19,0,0,0,5,1.35Z"/><path class="cls-1" d="M85.64,240.05l-2-.9,3-12.11,1,.14c.71.07,1.1,0,1.22-.75l-4.5-1.14c-.84-.2-1.32,0-1.36.67l1.64.57-1.32,5.23-7.87-2,1.31-5.23,1.17.18c.71.09,1.12,0,1.23-.76-4.25-1-4.73-1.19-4.73-1.19-.85-.2-1.35,0-1.37.68l1.69.58-3,12.12-1.56,0a.68.68,0,0,0-.7.78c.63.14,1.77.39,2.85.65s1.7.45,2.22.6,1.21,0,1.38-.57l-2.19-.94,1.4-5.6,7.87,2-1.38,5.58H80.08c-.55,0-.8.37-.73.75.71.16,1.83.43,2.93.7.84.21,1.63.43,2.21.57a.87.87,0,0,0,1.15-.62"/><path class="cls-1" d="M98,240l-2.2-.26-.64-12.44,1.08-.18c.74-.09,1-.35.86-1.09l-4.71.25c-.86,0-1.28.39-1.09,1.06l1.77.09.66,12.43-1.37.36c-.68.2-.81.6-.63,1,.65-.09,1.73-.13,2.76-.19s1.88-.09,2.5-.08a.91.91,0,0,0,1-1"/><path class="cls-1" d="M114.09,232.71a1,1,0,0,0-1.18,1l-.16,2-5.35,1.39-3.59-11.73,1.25-.51c.67-.28.94-.61.65-1.32L101,225c-.83.26-1.13.71-.81,1.31l1.66-.33,3.66,11.88-1.15.71a.66.66,0,0,0-.13,1l10.24-3.14Z"/><path class="cls-1" d="M126.33,225.88c-.65.06-1.08.49-.9,1.47l.29,1.76-4.92,2.52-2.72-4.71,3.57-2.06.7,1.37a1,1,0,0,0,.66-1.52c-.52-.88-.92-1.65-1.57-2.89a.92.92,0,0,0-.8.58c-.12.42,0,.66.37,1.3l-3.59,2.07L114.68,221l4.46-2.34,1.41,1.72c.58-.17,1-.7.58-1.27l-1.53-2.35-6.8,3.93c-2,1.14-1.91,1.51-1.44,2.06l1.53-.69,6.19,10.72-.92.91a.7.7,0,0,0,0,1.08l9.27-5.34Z"/><path class="cls-1" d="M42.26,209.69a3.1,3.1,0,1,1,3.1,3.09,3.1,3.1,0,0,1-3.1-3.09"/><path class="cls-1" d="M135.57,209.69a3.09,3.09,0,1,1,3.09,3.09,3.1,3.1,0,0,1-3.09-3.09"/><path class="cls-1" d="M151.42,123.83H93.09V32.63c18.31.61,41.18,17,52.56,53.24a127.68,127.68,0,0,1,5.77,38M93.09,126h58.33c-.58,58.87-34.22,90.31-58.33,91.21ZM90.95,217.2C66.76,216.3,33,185.15,32.6,126H90.95Zm0-93.36H32.6a131.53,131.53,0,0,1,5.74-37.76C49.66,49.65,72.6,33.24,90.95,32.63Zm62.61.58a130.4,130.4,0,0,0-5.88-39.18C135.93,47.7,111.75,30.48,92,30.48s-44,17.3-55.71,55a133.43,133.43,0,0,0-5.84,39.47c0,61.36,35.48,94.44,61.55,94.44s61.54-33.57,61.54-94.92"/><path class="cls-1" d="M118.64,165.2h16.29a1.07,1.07,0,0,0,1-1.06v-18c0-.48,0-.87.92-.87s.86.44.86.87v19.19a1.41,1.41,0,0,1-1.59,1.6H101.18a1.41,1.41,0,0,1-1.59-1.6V146.17c0-.43,0-.87.87-.87s.91.39.91.87v18a1.08,1.08,0,0,0,1,1.06Z"/><path class="cls-1" d="M118.65,162.11h12.59c1.92,0,1.8-.89,1.06-1.25-3.58-1.35-9-1.61-12.07,0-1.25.68-1-.57-1-1.07V143.73c0-.89,1-3.39,10.08-3,4.88.2,4.93,1.1,4.93,1.75v19.81a1.41,1.41,0,0,1-1.5,1.5H104.57a1.4,1.4,0,0,1-1.49-1.5V142.43c0-.65,0-1.58,4.93-1.75,9.06-.29,10.07,2.16,10.07,3v16.06c0,.51.21,1.75-1,1.07-3.08-1.61-8.49-1.35-12,0-.74.35-.87,1.25,1.06,1.25Z"/><path class="cls-1" d="M128.53,92.88a9.23,9.23,0,1,1-9.23-9.23,9.23,9.23,0,0,1,9.23,9.23m9.22-3.11c-.32-.44-1.13.06-1.86,0-2.17-.12-3.46-1.14-5.61-1.45a15.3,15.3,0,0,1-1.6-.47c2.73-1,4.38-4.35,2.92-5.1-.49-.24-.83.69-1.42,1-1.6,1-3-.16-4.58.84a7.83,7.83,0,0,0,1.48-2.71c.9-2,2.34-5.59.82-5.65-.52,0-.64.93-1.11,1.47-1.45,1.63-3,2-4.51,3.43-.44.42-.92.8-1.21,1.05.79-2.81-1-6.12-2.46-5.38-.48.25.06,1.06,0,1.74-.15,1.83-1.81,2.28-2,4a7.06,7.06,0,0,0-1.3-2.79c-1.11-1.94-3.14-5.2-4.07-4-.34.42.36,1.08.5,1.77.49,2.11-.14,3.65.13,5.55,0,.4.1.85.17,1.27-1.68-2.25-5.17-2.95-5.52-1.41-.1.54.85.65,1.35,1.14,1.28,1.28.59,2.83,1.8,4.14a7.63,7.63,0,0,0-3-.79c-2.19-.4-6-.93-5.68.55.11.54,1,.41,1.69.74,1.92,1,2.7,2.45,4.32,3.48.35.24.71.48,1.07.71-2.8-.05-5.52,2.26-4.52,3.47.36.43,1-.27,1.72-.35,1.82-.22,2.61,1.3,4.37,1.12a8,8,0,0,0-2.49,1.87c-1.64,1.52-4.41,4.16-3,4.84.48.25,1-.58,1.61-.89,2-.9,3.61-.62,5.4-1.26.39-.14.83-.27,1.22-.43-1.87,2.1-1.83,5.65-.22,5.66.54,0,.45-1,.81-1.53,1-1.54,2.65-1.16,3.68-2.62a7.45,7.45,0,0,0-.14,3.09c.07,2.22.33,6.06,1.73,5.44.49-.21.16-1.12.35-1.81.58-2.08,1.83-3.14,2.5-5a6.68,6.68,0,0,0,.43-1.26c.4,2.88,3.35,5.19,4.36,3.92.33-.41-.5-1-.71-1.59-.61-1.72.72-2.82.19-4.53a7.78,7.78,0,0,0,2.36,2c1.81,1.32,5,3.46,5.35,2,.14-.54-.77-.84-1.19-1.42-1.29-1.71-1.37-3.38-2.36-5a5.93,5.93,0,0,1-.61-1.26c2.53,1.57,6.32.78,6-.86-.1-.56-1.07-.25-1.73-.51-1.69-.63-1.73-2.3-3.25-3a8.76,8.76,0,0,0,3-.51c2.15-.55,5.83-1.6,5-2.84"/><path class="cls-1" d="M111.86,92.88a7.44,7.44,0,1,1,7.43,7.41,7.42,7.42,0,0,1-7.43-7.41"/><path class="cls-1" d="M63.79,138.46a3.07,3.07,0,0,1,1.74.4,3.57,3.57,0,0,1,1.2,1h3.33a2.3,2.3,0,0,1,2,1.6c.53,1.67-1.12,3.12-1.12,3.12.7.62,6.88,6.69,7.61,7.4a4.77,4.77,0,0,1,1.1,4.67c-.29,1.09-1,1.47-1.67,1S69.38,147,69.38,147s-.25-.34-.46-.19-.09.31,0,.55,8.42,11.42,8.42,11.42a3.73,3.73,0,0,1,.62,2.71c-.28,1-1.81,3.39-3.09,3.7A2,2,0,0,1,72.56,164c-1.49-3.9-5.39-15.66-5.39-15.66s-.27-.81-.65-.7-.15.87-.15.87l5.19,16.65a2.66,2.66,0,0,1-.56,2.76c-.65.69-1.51,1.32-4.25,1.86-.29,0-2-.08-2.16-1.61-.15-2.08-.32-19.47-.32-19.47s0-.76-.46-.76-.46.77-.46.77-.18,17.38-.34,19.46c-.11,1.52-1.85,1.62-2.15,1.62-2.75-.55-3.6-1.15-4.27-1.86a2.66,2.66,0,0,1-.54-2.74c.5-1.68,5.18-16.68,5.18-16.68s.25-.77-.15-.87-.65.73-.65.73S56.53,160.13,55.06,164a2,2,0,0,1-2.35,1.18c-1.28-.34-2.83-2.69-3.1-3.73a3.7,3.7,0,0,1,.64-2.69s8.29-11.19,8.42-11.43.24-.42,0-.56-.48.19-.48.19-8.1,10.21-8.61,10.6-1.4.12-1.67-1A4.82,4.82,0,0,1,49,151.93c.74-.71,6.9-6.77,7.6-7.39,0,0-1.65-1.45-1.12-3.13a2.33,2.33,0,0,1,2.05-1.6H60.9a4.21,4.21,0,0,1,1.19-1,3.14,3.14,0,0,1,1.71-.4m6.11,4.86a1.23,1.23,0,0,0,.6-1,1.14,1.14,0,0,0-1.14-1.12h-1.6Zm-12.17,0,2.15-2.09H58.26a1.12,1.12,0,0,0-1.1,1.12,1.18,1.18,0,0,0,.57,1"/><path class="cls-1" d="M58.45,93.19c0-1.73-.16-1.6.78-3,.71-1.14.78-2.8,1-4.15.14-.77-.74-1-1-.1-.31.62-1,1.3-1.4,2a68.49,68.49,0,0,0-4,5.64c-.47.72-2.74,2.36-2.39,3.51.2.64,1.37.59,2.67-.76.71-.83.9-1,1.48-1.08,1,.12,0,1,1.15,1.33s1.71-2.31,1.69-3.37m20.27,12.48a.81.81,0,0,1-.14,1.14.74.74,0,0,1-1.13-.12l-2-2.51c-2,.5-5.57-2.91-6.71-3.47s-3.24,3-4.32.53c-2.26-5.22-8.46,3.38-10.57,3.2s.37-2.75-.09-4.46-2.5,0-4.22.47a17.5,17.5,0,0,1-2.18.4l-4.9,6.07a.72.72,0,0,1-1.1.11.77.77,0,0,1-.16-1.13L57.4,84.72a9.65,9.65,0,0,1,1-1.23c1.37-1.45,2.71-1.89,4.6.19a49.68,49.68,0,0,1,3,4c1.21-2,4.21-5.74,5-7a2,2,0,0,1,3.15-.44c1.36,1.1,4.94,6.26,7.09,8.25a1.08,1.08,0,0,1,.33.34l2.27,2.29a.8.8,0,0,1-.05,1.16.72.72,0,0,1-1.1,0l-2.28-2.31a5.92,5.92,0,0,1-2.24,0c-1-.26-2.72-1.81-2.08,1.23.2,1,.49,1.49-.83,1.6S69.88,89.22,69,90.44a4.77,4.77,0,0,1-.7.84c1.26,2.07,10.42,14.39,10.42,14.39M71.37,83.15a25.91,25.91,0,0,1-2.26,3.4c-1,1,1.49,1.29,2.13.47S73,84.16,73,84.16s.06-1.63-.5-2-1.15,1-1.15,1"/></g></g></svg>